<svg class="svg-icon" style="width: 1em; height: 1em;vertical-align: middle;fill: currentColor;overflow: hidden;" viewBox="0 0 1024 1024" version="1.1" xmlns="http://www.w3.org/2000/svg"><path d="M228.13 485.33c0 153.81 121.57 278.85 270.79 278.85S769.7 639.14 769.7 485.33 648.13 206.49 498.91 206.49c-149.22 0-270.78 125.04-270.78 278.84z m631.41 343.39c14.38 14.81 14.36 38.66 0 53.43-6.97 7.22-16.5 11.29-26.46 11.29s-19.49-4.07-26.43-11.27L700.36 772.84c-58.43 43.4-128.25 67.26-201.44 67.26-190.44 0-345.24-159.22-345.24-354.77s154.79-354.77 345.23-354.77 345.24 159.22 345.24 354.77c0 88.42-31.96 171.84-88.49 236.54l103.88 106.85z" fill="#262626" /></svg>